HIERARCHY
ROOT hips
{
	OFFSET -0.003675 0.299928 -0.021708
	CHANNELS 6 Xposition Yposition Zposition Xrotation Yrotation Zrotation
	JOINT LowerBack
	{
		OFFSET 0.000919 0.177588 0.009275
		CHANNELS 3 Xrotation Yrotation Zrotation
		JOINT spine
		{
			OFFSET 0.000919 0.177588 0.009275
			CHANNELS 3 Xrotation Yrotation Zrotation
			JOINT chest
			{
				OFFSET 0.000456 0.100015 0.004638
				CHANNELS 3 Xrotation Yrotation Zrotation
				JOINT neck
				{
					OFFSET 0.000456 0.100015 0.004638
					CHANNELS 3 Xrotation Yrotation Zrotation
					JOINT head
					{
						OFFSET 0.000924 0.155147 0.009274
						CHANNELS 6 Xposition Yposition Zposition Xrotation Yrotation Zrotation
						End Site
						{
							OFFSET 0.000000 0.153400 0.000000
						}
					}
				}
				JOINT shoulder.L
				{
					OFFSET 0.019937 0.078966 0.057518
					CHANNELS 6 Xposition Yposition Zposition Yrotation Xrotation Zrotation
					JOINT upper_arm.L
					{
						OFFSET 0.177024 -0.020465 -0.095062
						CHANNELS 6 Xposition Yposition Zposition Xrotation Yrotation Zrotation
						JOINT forearm.L
						{
							OFFSET 0.247100 -0.135500 -0.061800
							CHANNELS 3 Xrotation Yrotation Zrotation
							JOINT hand.L
							{
								OFFSET 0.217000 -0.143000 0.039300
								CHANNELS 3 Xrotation Yrotation Zrotation
								JOINT palm.01.L
								{
									OFFSET 0.021770 -0.038291 0.012954
									CHANNELS 6 Xposition Yposition Zposition Yrotation Xrotation Zrotation
									JOINT f_index.01.L
									{
										OFFSET 0.053215 -0.044137 0.008236
										CHANNELS 3 Xrotation Yrotation Zrotation
										JOINT f_index.02.L
										{
											OFFSET 0.036108 -0.024723 -0.010656
											CHANNELS 3 Xrotation Yrotation Zrotation
											JOINT f_index.03.L
											{
												OFFSET 0.021342 -0.014948 -0.010846
												CHANNELS 3 Xrotation Yrotation Zrotation
												End Site
												{
													OFFSET 0.015600 -0.009860 -0.013421
												}
											}
										}
									}
									JOINT thumb.01.L
									{
										OFFSET -0.009090 -0.002348 -0.024223
										CHANNELS 6 Xposition Yposition Zposition Xrotation Yrotation Zrotation
										JOINT thumb.02.L
										{
											OFFSET 0.019713 -0.035076 -0.011120
											CHANNELS 3 Xrotation Yrotation Zrotation
											JOINT thumb.03.L
											{
												OFFSET 0.024877 -0.021748 -0.005176
												CHANNELS 3 Xrotation Yrotation Zrotation
												End Site
												{
													OFFSET 0.016125 -0.013029 -0.001569
												}
											}
										}
									}
								}
								JOINT palm.02.L
								{
									OFFSET 0.032823 -0.025104 0.012281
									CHANNELS 6 Xposition Yposition Zposition Yrotation Xrotation Zrotation
									JOINT f_middle.01.L
									{
										OFFSET 0.055723 -0.038469 0.008037
										CHANNELS 3 Xrotation Yrotation Zrotation
										JOINT f_middle.02.L
										{
											OFFSET 0.038167 -0.027473 -0.015582
											CHANNELS 3 Xrotation Yrotation Zrotation
											JOINT f_middle.03.L
											{
												OFFSET 0.021707 -0.016587 -0.017037
												CHANNELS 3 Xrotation Yrotation Zrotation
												End Site
												{
													OFFSET 0.014112 -0.010584 -0.014294
												}
											}
										}
									}
								}
								JOINT palm.03.L
								{
									OFFSET 0.039230 -0.011402 0.008390
									CHANNELS 6 Xposition Yposition Zposition Yrotation Xrotation Zrotation
									JOINT f_ring.01.L
									{
										OFFSET 0.061796 -0.031470 0.007910
										CHANNELS 3 Xrotation Yrotation Zrotation
										JOINT f_ring.02.L
										{
											OFFSET 0.033092 -0.023401 -0.019127
											CHANNELS 3 Xrotation Yrotation Zrotation
											JOINT f_ring.03.L
											{
												OFFSET 0.021392 -0.015362 -0.017824
												CHANNELS 3 Xrotation Yrotation Zrotation
												End Site
												{
													OFFSET 0.008670 -0.007297 -0.014686
												}
											}
										}
									}
								}
								JOINT palm.04.L
								{
									OFFSET 0.043417 0.002450 0.002889
									CHANNELS 6 Xposition Yposition Zposition Yrotation Xrotation Zrotation
									JOINT f_pinky.01.L
									{
										OFFSET 0.069986 -0.026156 0.003627
										CHANNELS 3 Xrotation Yrotation Zrotation
										JOINT f_pinky.02.L
										{
											OFFSET 0.018520 -0.012813 -0.016429
											CHANNELS 3 Xrotation Yrotation Zrotation
											JOINT f_pinky.03.L
											{
												OFFSET 0.013822 -0.009796 -0.014947
												CHANNELS 3 Xrotation Yrotation Zrotation
												End Site
												{
													OFFSET 0.007238 -0.006103 -0.011657
												}
											}
										}
									}
								}
							}
						}
					}
				}
				JOINT shoulder.R
				{
					OFFSET -0.016662 0.078957 0.057696
					CHANNELS 6 Xposition Yposition Zposition Yrotation Xrotation Zrotation
					JOINT upper_arm.R
					{
						OFFSET -0.176972 -0.020537 -0.095144
						CHANNELS 6 Xposition Yposition Zposition Xrotation Yrotation Zrotation
						JOINT forearm.R
						{
							OFFSET -0.247100 -0.135500 -0.061800
							CHANNELS 3 Xrotation Yrotation Zrotation
							JOINT hand.R
							{
								OFFSET -0.217000 -0.143000 0.039300
								CHANNELS 3 Xrotation Yrotation Zrotation
								JOINT palm.01.R
								{
									OFFSET -0.021773 -0.038278 0.012988
									CHANNELS 6 Xposition Yposition Zposition Yrotation Xrotation Zrotation
									JOINT f_index.01.R
									{
										OFFSET -0.053212 -0.044139 0.008249
										CHANNELS 3 Xrotation Yrotation Zrotation
										JOINT f_index.02.R
										{
											OFFSET -0.036049 -0.024835 -0.010634
											CHANNELS 3 Xrotation Yrotation Zrotation
											JOINT f_index.03.R
											{
												OFFSET -0.021371 -0.014881 -0.010866
												CHANNELS 3 Xrotation Yrotation Zrotation
												End Site
												{
													OFFSET -0.015584 -0.009883 -0.013422
												}
											}
										}
									}
									JOINT thumb.01.R
									{
										OFFSET 0.009113 -0.002381 -0.024211
										CHANNELS 6 Xposition Yposition Zposition Xrotation Yrotation Zrotation
										JOINT thumb.02.R
										{
											OFFSET -0.019694 -0.035097 -0.011088
											CHANNELS 3 Xrotation Yrotation Zrotation
											JOINT thumb.03.R
											{
												OFFSET -0.024867 -0.021762 -0.005168
												CHANNELS 3 Xrotation Yrotation Zrotation
												End Site
												{
													OFFSET -0.016120 -0.013036 -0.001565
												}
											}
										}
									}
								}
								JOINT palm.02.R
								{
									OFFSET -0.032828 -0.025095 0.012286
									CHANNELS 6 Xposition Yposition Zposition Yrotation Xrotation Zrotation
									JOINT f_middle.01.R
									{
										OFFSET -0.055721 -0.038472 0.008040
										CHANNELS 3 Xrotation Yrotation Zrotation
										JOINT f_middle.02.R
										{
											OFFSET -0.038101 -0.027593 -0.015557
											CHANNELS 3 Xrotation Yrotation Zrotation
											JOINT f_middle.03.R
											{
												OFFSET -0.021730 -0.016530 -0.017054
												CHANNELS 3 Xrotation Yrotation Zrotation
												End Site
												{
													OFFSET -0.014096 -0.010608 -0.014293
												}
											}
										}
									}
								}
								JOINT palm.03.R
								{
									OFFSET -0.039192 -0.011488 0.008390
									CHANNELS 6 Xposition Yposition Zposition Yrotation Xrotation Zrotation
									JOINT f_ring.01.R
									{
										OFFSET -0.061839 -0.031387 0.007876
										CHANNELS 3 Xrotation Yrotation Zrotation
										JOINT f_ring.02.R
										{
											OFFSET -0.033068 -0.023437 -0.019125
											CHANNELS 3 Xrotation Yrotation Zrotation
											JOINT f_ring.03.R
											{
												OFFSET -0.021371 -0.015393 -0.017822
												CHANNELS 3 Xrotation Yrotation Zrotation
												End Site
												{
													OFFSET -0.008654 -0.007321 -0.014684
												}
											}
										}
									}
								}
								JOINT palm.04.R
								{
									OFFSET -0.043421 0.002443 0.002845
									CHANNELS 6 Xposition Yposition Zposition Yrotation Xrotation Zrotation
									JOINT f_pinky.01.R
									{
										OFFSET -0.069983 -0.026169 0.003599
										CHANNELS 3 Xrotation Yrotation Zrotation
										JOINT f_pinky.02.R
										{
											OFFSET -0.018501 -0.012842 -0.016428
											CHANNELS 3 Xrotation Yrotation Zrotation
											JOINT f_pinky.03.R
											{
												OFFSET -0.013806 -0.009821 -0.014946
												CHANNELS 3 Xrotation Yrotation Zrotation
												End Site
												{
													OFFSET -0.007226 -0.006121 -0.011655
												}
											}
										}
									}
								}
							}
						}
					}
				}
			}
		}
	}
	JOINT pelvis.L
	{
		OFFSET 0.000000 0.000000 0.000000
		CHANNELS 6 Xposition Yposition Zposition Xrotation Yrotation Zrotation
		JOINT thigh.L
		{
			OFFSET 0.101675 0.001054 -0.000000
			CHANNELS 3 Xrotation Yrotation Zrotation
			JOINT shin.L
			{
				OFFSET 0.000000 -0.534800 0.041000
				CHANNELS 3 Xrotation Yrotation Zrotation
				JOINT foot.L
				{
					OFFSET 0.000000 -0.452000 -0.044800
					CHANNELS 3 Xrotation Yrotation Zrotation
					JOINT toe.L
					{
						OFFSET -0.000000 -0.068500 0.109600
						CHANNELS 3 Xrotation Yrotation Zrotation
						End Site
						{
							OFFSET -0.000000 0.000000 0.067200
						}
					}
				}
				JOINT heel.L
				{
					OFFSET 0.000000 -0.452000 -0.044800
					CHANNELS 3 Xrotation Yrotation Zrotation
					JOINT heel.02.L
					{
						OFFSET -0.038000 -0.085200 0.016200
						CHANNELS 6 Xposition Yposition Zposition Xrotation Yrotation Zrotation
						End Site
						{
							OFFSET 0.080000 -0.000000 0.000000
						}
					}
				}
			}
		}
	}
	JOINT pelvis.R
	{
		OFFSET 0.000000 0.000000 0.000000
		CHANNELS 6 Xposition Yposition Zposition Xrotation Yrotation Zrotation
		JOINT thigh.R
		{
			OFFSET -0.094325 0.001054 0.000000
			CHANNELS 3 Xrotation Yrotation Zrotation
			JOINT shin.R
			{
				OFFSET 0.000000 -0.534800 0.041000
				CHANNELS 3 Xrotation Yrotation Zrotation
				JOINT foot.R
				{
					OFFSET 0.000000 -0.452000 -0.044800
					CHANNELS 3 Xrotation Yrotation Zrotation
					JOINT toe.R
					{
						OFFSET -0.000000 -0.068500 0.109600
						CHANNELS 3 Xrotation Yrotation Zrotation
						End Site
						{
							OFFSET -0.000000 0.000000 0.067200
						}
					}
				}
				JOINT heel.R
				{
					OFFSET 0.000000 -0.452000 -0.044800
					CHANNELS 3 Xrotation Yrotation Zrotation
					JOINT heel.02.R
					{
						OFFSET 0.038000 -0.085200 0.016200
						CHANNELS 6 Xposition Yposition Zposition Xrotation Yrotation Zrotation
						End Site
						{
							OFFSET -0.080000 0.000000 -0.000000
						}
					}
				}
			}
		}
	}
}
MOTION
Frames: 4
Frame Time: 0.041667
-0.004936 0.303145 -0.021442 9.312895 -2.903189 -0.190801 -0.000001 -0.000000 0.000000 -0.000000 0.000000 -0.000000 -0.000000 -0.000000 -0.000000 0.000000 -0.000000 0.000000 0.000924 0.155148 0.009274 3.665513 -0.001619 0.999527 0.019937 0.078966 0.057518 6.039022 5.690592 27.106297 0.177024 -0.020465 -0.095062 -2.543620 11.055450 -60.710109 -69.817251 -17.888506 -48.772557 -0.000002 0.000003 0.000004 0.021770 -0.038291 0.012954 -0.000001 -0.000000 -0.000004 0.000002 0.000001 -0.000002 0.000001 -0.000004 0.000003 -0.000002 0.000005 0.000000 -0.009090 -0.002348 -0.024223 -0.000001 -0.000002 0.000001 -0.000000 0.000001 -0.000005 -0.000004 -0.000001 -0.000004 0.032823 -0.025104 0.012281 -0.000004 0.000001 -0.000001 0.000004 0.000004 -0.000005 -0.000002 0.000002 -0.000000 -0.000003 0.000005 -0.000001 0.039230 -0.011402 0.008390 -0.000003 0.000001 0.000003 0.000001 0.000000 -0.000007 -0.000001 0.000003 -0.000002 0.000003 -0.000001 0.000005 0.043417 0.002450 0.002889 -0.000002 0.000002 -0.000002 0.000001 -0.000004 0.000003 0.000001 -0.000001 -0.000000 -0.000001 -0.000003 -0.000002 -0.016662 0.078957 0.057696 0.476204 4.893507 -26.997089 -0.176972 -0.020537 -0.095144 -4.941901 -11.056131 58.732401 -49.997763 26.430986 34.486107 -0.000000 0.000001 0.000004 -0.021773 -0.038278 0.012988 -0.000000 -0.000001 -0.000003 -0.000004 0.000002 -0.000001 0.000001 -0.000001 -0.000003 -0.000002 0.000000 0.000006 0.009114 -0.002381 -0.024211 -0.000002 0.000001 0.000001 0.000003 -0.000002 0.000000 -0.000001 0.000000 -0.000003 -0.032828 -0.025095 0.012286 0.000003 -0.000001 -0.000003 -0.000002 0.000001 -0.000005 0.000002 -0.000005 -0.000001 -0.000001 -0.000001 -0.000004 -0.039192 -0.011488 0.008390 0.000001 -0.000003 -0.000000 0.000002 0.000002 -0.000003 0.000001 -0.000003 0.000003 0.000001 -0.000004 -0.000001 -0.043421 0.002443 0.002845 0.000002 -0.000003 -0.000002 -0.000002 0.000004 -0.000003 0.000002 -0.000006 0.000002 0.000000 -0.000004 -0.000003 0.000000 0.000000 -0.000000 -1.185022 -0.000032 -1.052194 -17.990710 -0.030911 0.759930 46.438183 0.401700 -4.054208 0.000003 -0.000000 0.000000 -0.000001 0.000000 -0.000000 0.000002 -0.000000 0.000000 -0.038000 -0.085200 0.016200 -0.000001 0.000000 -0.000000 0.000000 0.000000 0.000000 -1.159576 -0.000237 0.181986 -15.339314 0.091291 -0.105981 43.416873 -0.320070 3.232013 0.000000 -0.000000 0.000000 -0.000001 -0.000000 0.000000 0.000003 -0.000000 0.000000 0.038000 -0.085200 0.016200 -0.000005 -0.000000 0.000000 
-0.006260 0.302131 -0.012882 5.474073 -1.748348 1.557448 -0.000001 0.000000 0.000000 0.000001 0.000000 0.000000 -0.000001 0.000000 0.000000 0.000000 0.000000 -0.000000 0.000924 0.155147 0.009274 6.690336 -0.005930 -1.609644 0.019937 0.078966 0.057518 3.696379 5.729602 26.965455 0.177025 -0.020465 -0.095062 -9.262986 11.157661 -60.676047 -85.068278 -23.449267 -49.558306 -0.000001 0.000000 0.000001 0.021770 -0.038291 0.012954 0.000001 -0.000002 -0.000002 -0.000003 -0.000001 -0.000000 0.000001 0.000001 0.000007 -0.000000 0.000002 0.000003 -0.009090 -0.002348 -0.024224 -0.000002 -0.000001 0.000003 0.000001 0.000002 0.000003 -0.000001 0.000001 -0.000001 0.032823 -0.025104 0.012281 0.000001 -0.000000 0.000005 0.000000 0.000001 -0.000003 -0.000003 -0.000005 0.000003 -0.000001 0.000003 -0.000001 0.039230 -0.011402 0.008390 0.000001 -0.000001 0.000006 -0.000000 0.000001 0.000001 -0.000002 0.000003 0.000006 -0.000001 0.000002 0.000005 0.043417 0.002450 0.002889 0.000000 0.000000 -0.000003 0.000000 -0.000004 0.000001 0.000000 0.000003 0.000001 -0.000000 -0.000002 -0.000002 -0.016662 0.078957 0.057696 -0.432153 5.803385 -28.146641 -0.176972 -0.020537 -0.095144 -10.925099 -9.929312 55.050143 -61.339552 32.567083 35.894618 0.000001 0.000002 0.000002 -0.021773 -0.038278 0.012988 -0.000001 -0.000002 0.000000 0.000003 0.000000 0.000002 0.000001 -0.000002 -0.000001 -0.000000 -0.000002 0.000003 0.009114 -0.002381 -0.024212 0.000001 -0.000000 0.000001 0.000000 -0.000002 -0.000003 0.000003 0.000001 -0.000001 -0.032828 -0.025095 0.012286 -0.000001 0.000002 -0.000001 0.000001 0.000000 0.000004 0.000000 -0.000003 0.000001 -0.000003 0.000003 -0.000006 -0.039192 -0.011488 0.008390 -0.000000 0.000004 -0.000000 -0.000001 0.000001 -0.000003 -0.000001 -0.000001 -0.000002 -0.000006 0.000002 -0.000003 -0.043421 0.002443 0.002845 -0.000001 0.000001 -0.000001 -0.000003 0.000004 0.000003 -0.000000 0.000003 0.000002 -0.000001 0.000000 0.000003 -0.000000 0.000000 -0.000000 -1.109949 0.039215 -1.608050 0.484034 -0.128345 -1.457071 22.813508 -0.166014 1.677289 -0.000002 -0.000000 0.000000 -0.000002 -0.000000 -0.000000 0.000000 -0.000000 0.000000 -0.038000 -0.085200 0.016200 -0.000002 -0.000000 -0.000000 -0.000000 0.000000 0.000000 -1.085070 0.038773 -0.373898 0.834684 0.210676 2.501700 22.334295 0.550668 -5.564129 0.000009 0.000000 -0.000000 0.000005 -0.000000 -0.000000 0.000010 0.000000 -0.000000 0.038000 -0.085200 0.016200 0.000002 0.000000 0.000000 
-0.005551 0.291085 -0.026136 3.800203 3.002922 1.007092 -0.000001 0.000000 -0.000000 0.000000 0.000000 0.000000 0.000000 0.000000 0.000000 0.000001 0.000000 0.000000 0.000924 0.155147 0.009274 6.340603 -0.006075 -0.403120 0.019937 0.078966 0.057518 1.199206 3.942069 26.316587 0.177025 -0.020465 -0.095062 -8.342467 11.556300 -61.069992 -81.157558 -9.187664 -54.147858 0.000000 -0.000001 0.000002 0.021770 -0.038291 0.012954 0.000001 0.000002 -0.000001 -0.000002 0.000001 -0.000004 -0.000001 -0.000000 0.000010 0.000002 0.000003 0.000000 -0.009090 -0.002348 -0.024224 -0.000000 -0.000001 -0.000001 -0.000002 -0.000001 0.000001 0.000000 -0.000001 -0.000002 0.032823 -0.025104 0.012281 0.000000 -0.000000 0.000007 0.000002 -0.000002 -0.000002 -0.000003 -0.000004 -0.000000 -0.000000 0.000003 0.000003 0.039230 -0.011402 0.008390 0.000003 -0.000000 0.000004 -0.000002 -0.000002 -0.000000 -0.000001 -0.000003 0.000003 0.000007 -0.000003 0.000003 0.043417 0.002450 0.002889 0.000000 -0.000000 -0.000003 -0.000007 -0.000003 0.000001 -0.000005 0.000001 0.000003 0.000001 0.000001 -0.000001 -0.016662 0.078957 0.057696 -2.403588 4.502123 -27.179315 -0.176972 -0.020537 -0.095144 -7.792150 -10.459845 55.921791 -48.525950 40.538593 21.137340 0.000000 0.000002 0.000003 -0.021773 -0.038278 0.012988 -0.000003 0.000001 -0.000005 -0.000000 -0.000001 -0.000001 -0.000001 -0.000002 -0.000005 -0.000006 0.000003 -0.000000 0.009113 -0.002381 -0.024212 0.000001 -0.000002 0.000000 0.000001 -0.000001 0.000002 0.000005 -0.000004 -0.000003 -0.032828 -0.025095 0.012286 -0.000002 0.000001 -0.000003 -0.000000 -0.000001 -0.000001 -0.000002 0.000003 0.000002 -0.000000 0.000002 -0.000003 -0.039192 -0.011488 0.008390 -0.000001 0.000002 -0.000005 -0.000002 -0.000002 -0.000002 -0.000001 -0.000004 -0.000002 0.000001 0.000005 -0.000007 -0.043421 0.002443 0.002845 -0.000003 0.000002 0.000000 -0.000004 0.000002 -0.000001 -0.000003 -0.000001 -0.000000 -0.000001 0.000004 0.000001 -0.000000 0.000000 0.000000 -1.330960 -0.022975 -0.733107 -19.614785 0.078802 2.344703 50.846804 1.018378 -10.329572 -0.000002 -0.000001 0.000000 -0.000003 -0.000000 0.000001 0.000000 -0.000001 0.000000 -0.038000 -0.085200 0.016200 -0.000000 -0.000000 0.000000 -0.000000 0.000000 0.000000 -1.303028 -0.023042 0.501095 -10.572298 0.143155 0.822377 33.186749 -0.627330 6.343282 -0.000005 0.000000 0.000001 0.000001 0.000001 0.000001 0.000007 0.000001 0.000002 0.038000 -0.085200 0.016200 -0.000004 0.000000 -0.000001 
-0.005602 0.287205 -0.029152 5.648235 2.162993 1.195006 -0.000000 0.000000 -0.000000 0.000000 -0.000000 0.000000 -0.000000 -0.000000 0.000000 -0.000000 -0.000000 -0.000000 0.000924 0.155147 0.009274 4.282327 -0.002919 -1.694392 0.019937 0.078966 0.057518 6.021256 4.760383 27.660700 0.177025 -0.020465 -0.095062 2.437449 11.648478 -61.151483 -54.744052 -17.685532 -45.673195 -0.000007 -0.000002 -0.000002 0.021770 -0.038291 0.012954 0.000004 0.000002 0.000001 -0.000004 -0.000002 -0.000002 0.000003 0.000003 0.000009 -0.000003 0.000002 0.000002 -0.009090 -0.002348 -0.024223 -0.000002 -0.000003 0.000000 0.000001 0.000003 0.000003 -0.000001 0.000001 -0.000002 0.032823 -0.025104 0.012281 0.000003 0.000003 0.000004 -0.000002 -0.000001 -0.000003 -0.000003 -0.000001 0.000001 0.000002 0.000003 0.000001 0.039230 -0.011402 0.008390 0.000003 0.000002 0.000006 -0.000000 -0.000001 0.000003 0.000000 0.000003 -0.000001 -0.000001 0.000000 -0.000003 0.043417 0.002450 0.002889 0.000002 0.000002 -0.000002 -0.000002 -0.000004 -0.000002 -0.000001 -0.000001 -0.000003 -0.000003 0.000002 -0.000005 -0.016662 0.078957 0.057696 0.035078 3.914372 -27.306478 -0.176972 -0.020537 -0.095144 -6.819248 -11.119896 57.508089 -27.856450 28.358560 12.173204 0.000002 -0.000000 0.000006 -0.021773 -0.038278 0.012988 -0.000000 -0.000000 -0.000003 -0.000001 0.000001 0.000002 0.000002 -0.000000 -0.000006 0.000001 0.000000 0.000001 0.009113 -0.002381 -0.024211 -0.000002 -0.000000 0.000001 -0.000003 -0.000000 0.000000 -0.000001 0.000000 -0.000001 -0.032828 -0.025095 0.012286 0.000000 0.000003 -0.000003 -0.000002 0.000000 0.000001 0.000000 0.000001 -0.000002 -0.000003 0.000002 -0.000003 -0.039192 -0.011488 0.008390 0.000001 0.000004 -0.000002 -0.000001 0.000001 0.000000 -0.000001 -0.000003 -0.000000 0.000001 -0.000001 -0.000000 -0.043421 0.002443 0.002844 -0.000000 0.000004 -0.000003 -0.000003 0.000006 -0.000002 -0.000001 -0.000004 -0.000000 0.000000 0.000002 -0.000003 -0.000000 0.000000 -0.000000 -1.387660 -0.020390 -0.765071 -23.796593 0.151029 3.539962 49.079339 0.893781 -9.053894 0.000005 0.000000 0.000000 -0.000006 -0.000000 -0.000000 -0.000002 -0.000000 0.000001 -0.038000 -0.085200 0.016200 0.000001 -0.000001 0.000000 -0.000000 0.000000 0.000000 -1.358449 -0.020478 0.469124 -17.756631 0.048943 -0.909029 38.947255 -0.859579 8.707546 -0.000002 0.000000 0.000000 0.000005 0.000000 0.000000 0.000005 0.000000 0.000001 0.038000 -0.085200 0.016200 -0.000002 0.000000 -0.000000 
